<svg version="1.1" xmlns="http://www.w3.org/2000/svg" xmlns:xlink="http://www.w3.org/1999/xlink" x="0px" y="0px" viewBox="0 0 256 256" enable-background="new 0 0 256 256" xml:space="preserve">
  <g><g><g>
    <path fill="#ffffff" data-title="Layer 0" xs="0" d="M118.5,6.2c-18.1,2.1-29.8,5.3-43.1,11.7C50.1,30.2,30.8,49.3,18.6,74.1c-3.8,7.9-9.1,22.3-8.4,23c0.2,0.2,3.9,0.3,8.2,0.2l7.8-0.1l1.9-5.2c2.2-6,5.4-12.9,8.6-18.2c3.7-6.2,2.4-5.7,11.1-4c4.1,0.8,10.6,1.9,14.4,2.5c3.7,0.5,6.9,1.1,7,1.2c0.1,0.1-0.4,2.7-1.1,5.8c-0.7,3.1-1.6,7.7-2,10.2c-0.4,2.6-0.9,5.4-1,6.3l-0.2,1.6l8-0.1l8-0.1l1-5.9c0.6-3.2,1.6-8.2,2.2-11l1.2-5.1l5.2,0.3c27.6,1.7,47.3,1.7,74.9,0l5.2-0.3l1.1,4.9c0.6,2.7,1.6,7.6,2.2,11l1.1,6.2l8,0.1l8,0.1l-0.2-1.6c-0.1-0.9-0.6-3.7-1.1-6.3c-0.4-2.6-1.3-7.2-2-10.2c-0.6-3.1-1.1-5.7-1-5.8c0.1-0.1,3.3-0.7,7-1.2c3.8-0.6,10.3-1.7,14.4-2.5c8.7-1.7,7.4-2.2,11.2,4.1c3.1,5.1,6.4,12.3,8.6,18.3l1.8,5l7.8,0.1c4.3,0,8,0,8.2-0.2c0.7-0.7-4.5-15.2-8.4-23c-17.7-36-52-61-92.1-66.9C139.7,6.3,122.6,5.7,118.5,6.2z M135.4,23.3c8.4,3.1,16.7,11.3,23.3,23c3,5.2,6.4,12.6,5.9,13c-1.2,1.2-39.6,2-57.7,1.2c-7.3-0.3-14-0.8-14.9-0.9l-1.6-0.3l3.4-6.9c8.5-17.2,18-27,29.1-30C126.5,21.4,131.2,21.7,135.4,23.3z M86,34c-3,4.6-8.1,14.7-10.3,20.4c-0.6,1.6-1.3,3.1-1.4,3.3c-0.3,0.3-6.9-0.5-16.4-2.1l-6.3-1.1l2.1-2.2c3.5-3.6,10.7-9.5,16.1-13c4.7-3.1,18.7-10.4,19.1-10C89,29.3,87.7,31.5,86,34z M178.6,34.8c8,4.3,18,11.7,23.5,17.5l2.1,2.2l-6.3,1.1c-9.5,1.6-16.1,2.5-16.4,2.1c-0.1-0.2-1-2.2-1.9-4.5c-2.3-5.9-6.6-14.2-10-19.3c-1.5-2.4-2.8-4.4-2.8-4.5C166.8,28.9,173.9,32.3,178.6,34.8z"/>
    <path fill="#ffffff" data-title="Layer 1" xs="1" d="M20.7,106.4c0.2,0.6,1.2,3.8,9.5,29l4.7,14.7h6.3h6.3l0.9-2.6c0.5-1.4,2.2-6.3,3.8-10.8c1.6-4.5,3-8.1,3.2-7.9c0.1,0.2,1.9,5.1,3.9,10.8l3.6,10.5h6.4h6.4l7-21.8c3.9-12,7-21.9,7-22.1c0-0.2-3.3-0.3-7.3-0.3c-6.6,0-7.4,0.1-7.6,0.8c-1.8,6.5-5.9,20.1-6,20.2s-1.7-4.6-3.7-10.4l-3.5-10.6h-6.3h-6.3l-3.6,10.7c-2,5.9-3.6,10.5-3.7,10.2c-0.1-0.3-1.4-4.7-2.9-9.8c-1.5-5.2-2.9-9.7-3-10.2c-0.2-0.7-1-0.8-7.9-0.8C22.2,105.8,20.5,106,20.7,106.4z"/>
    <path fill="#ffffff" data-title="Layer 2" xs="2" d="M95.6,113.8c1.4,4.4,4.7,14.4,7.2,22.2l4.6,14.2l6.4-0.1l6.4-0.1l3.6-10.5c2-5.7,3.8-10.4,4-10.4c0.2,0,2,4.7,4,10.4l3.7,10.5l6.4,0.1l6.4,0.1l4.1-12.7c2.3-7,5.5-17,7.2-22.2l3.1-9.5h-7.5h-7.5l-2.6,9c-1.5,5-2.9,9.8-3.2,10.7c-0.4,1.7-0.6,1.3-4-8.9l-3.5-10.6l-6.3-0.1l-6.4-0.1l-3.4,10.4c-1.9,5.7-3.5,10.3-3.7,10.3c-0.1,0-1.2-3.2-2.4-7.3c-1.2-4-2.6-8.6-3.1-10.3l-0.9-3.1h-7.5H93L95.6,113.8z"/>
    <path fill="#ffffff" data-title="Layer 3" xs="3" d="M165.8,106.1c0,0.2,3.1,10.2,7,22.1l7,21.8h6.4h6.4l3.6-10.5c2-5.7,3.7-10.6,3.9-10.8c0.1-0.2,2,4.4,4.1,10.3l3.7,10.7l6.4,0.1l6.4,0.1l1.8-5.6c3-9.3,12.2-37.5,12.4-38.2c0.2-0.5-1.3-0.6-7.3-0.5l-7.6,0.1l-2,6.9c-1.1,3.8-2.6,8.6-3.2,10.6l-1.1,3.7l-3.5-10.6l-3.5-10.6h-6.3h-6.3l-3.5,10.2c-1.9,5.7-3.6,10.2-3.7,10.2c-0.1,0-1.6-4.6-3.2-10.2l-3-10.2l-7.5-0.1C169.1,105.9,165.8,106,165.8,106.1z"/>
    <path fill="#ffffff" data-title="Layer 4" xs="4" d="M231.7,142.5v7.1h7.1h7.1v-7.1v-7.1h-7.1h-7.1V142.5z"/>
    <path fill="#ffffff" data-title="Layer 5" xs="5" d="M10,158.9c-0.6,1,4.9,15.6,8.8,23.5c6.6,13.3,13.7,23.1,24.2,33.2c17.1,16.6,37.5,27.3,60.7,32c48.6,9.7,97.8-10.5,125.5-51.7c3.4-5.2,9.1-15.8,11.4-21.4c2.3-5.7,5.3-15.2,5.1-15.6c-0.1-0.2-3.8-0.4-8.2-0.4h-8l-1.7,5c-2,5.9-6.5,15.3-9.7,20.2c-1.2,2-2.4,3.6-2.4,3.7c-0.1,0.1-3.5-0.5-7.7-1.3c-4.2-0.8-10.7-1.9-14.5-2.5c-3.7-0.5-6.9-1.1-7-1.2c-0.1-0.1,0.4-2.8,1.1-6c2-9.3,3.2-17.5,2.5-17.7c-0.3-0.1-3.9-0.1-7.9-0.1l-7.3,0.1l-1,5.9c-0.6,3.2-1.6,8.2-2.2,11l-1.2,5.1l-5.2-0.3c-16.7-1-22.5-1.2-37.5-1.2c-14.9,0-20.7,0.2-37.5,1.2l-5.2,0.3l-1.2-5.1c-0.6-2.8-1.6-7.8-2.2-11l-1-5.9l-7.6-0.1c-4.1-0.1-7.7,0-7.9,0.2c-0.4,0.4,1.3,11.3,3,18.8c0.5,2.5,0.9,4.7,0.9,4.8c-0.1,0.1-3.9,0.7-8.5,1.4c-4.6,0.7-11,1.8-14.2,2.5c-3.2,0.6-6,1.2-6.2,1.2c-0.6,0-5.2-7.7-7.8-13.3c-1.4-2.9-3.3-7.5-4.4-10.3l-1.9-5.2l-7.9-0.1C13.9,158.5,10.2,158.6,10,158.9z M150.6,195.4c12,0.6,14.2,0.8,14.2,1.7c0,1.1-6.3,13.2-8.8,17c-9.6,14.5-21,21.7-31.4,19.7c-8.9-1.6-17.2-8.2-24.8-19.7c-2.6-3.8-8.8-15.9-8.8-17c0-0.3,0.9-0.7,2.1-0.9C101,195,134.3,194.6,150.6,195.4z M76.1,202.8c2.5,6.2,6.2,13.5,9.6,18.9c1.5,2.4,2.7,4.5,2.6,4.6c-0.5,0.4-12.8-5.9-17.7-9.1c-6.1-4-12.4-9-16.2-12.9l-2.9-2.9l6.3-1.1c7.3-1.2,15.5-2.4,16-2.3C74.1,198.1,75.1,200.2,76.1,202.8z M187.9,198.8c2,0.2,6.5,1,10,1.6l6.3,1.1l-2.9,2.9c-3.7,3.7-10,8.8-15.9,12.6c-4.8,3.2-17.5,9.7-18,9.3c-0.1-0.1,1-2.2,2.5-4.6c4-6.4,8.9-16.4,11.2-22.9c0.2-0.6,0.7-0.8,1.7-0.6C183.6,198.2,185.9,198.5,187.9,198.8z"/>
  </g></g></g>
</svg>