<svg xmlns="http://www.w3.org/2000/svg" version="1.1" xmlns:xlink="http://www.w3.org/1999/xlink" xmlns:svgjs="http://svgjs.dev/svgjs" width="2200" height="2200" viewBox="0 0 1500 1500"><rect width="1500" height="1500" fill="#000000"></rect><g transform="matrix(0.6666666666666666,0,0,0.6666666666666666,249.39393939393938,565.4125587017348)"><svg viewBox="0 0 396 146" data-background-color="#000000" preserveAspectRatio="xMidYMid meet" height="553" width="1500" xmlns="http://www.w3.org/2000/svg" xmlns:xlink="http://www.w3.org/1999/xlink"><g id="tight-bounds" transform="matrix(1,0,0,1,0.2400000000000091,0.100632268209921)"><svg viewBox="0 0 395.52 145.79873546358016" height="145.79873546358016" width="395.52"><g><svg viewBox="0 0 663.0886831755106 244.43135999999998" height="145.79873546358016" width="395.52"><g transform="matrix(1,0,0,1,0,17.456328648648636)"><svg viewBox="0 0 395.52 209.5187027027027" height="209.5187027027027" width="395.52"><g id="textblocktransform"><svg viewBox="0 0 395.52 209.5187027027027" height="209.5187027027027" width="395.52" id="textblock"><g><svg viewBox="0 0 395.52 209.5187027027027" height="209.5187027027027" width="395.52"><g transform="matrix(1,0,0,1,0,0)"><svg width="395.52" viewBox="87.62 -34.05 175.75 81.1" height="209.5187027027027" data-palette-color="url(#7e8ab882-a97b-4cd0-9d6c-84bc49662551)"><svg></svg><svg></svg><g class="wordmark-text-0" data-fill-palette-color="primary" id="text-0"></g></svg></g></svg></g></svg></g></svg></g><g transform="matrix(1,0,0,1,418.65732317551067,0)"><svg viewBox="0 0 244.43135999999998 244.43135999999998" height="244.43135999999998" width="244.43135999999998"><g data-palette-color="url(#8a84a348-2633-40ff-b904-2ed08e3a827d)"></g></svg></g></svg></g><defs></defs><mask id="15265e52-865b-4840-8d86-e40e1baca401"><g id="SvgjsG1236"><svg viewBox="0 0 395.52 145.79873546358016" height="145.79873546358016" width="395.52"><g><svg viewBox="0 0 663.0886831755106 244.43135999999998" height="145.79873546358016" width="395.52"><g transform="matrix(1,0,0,1,0,17.456328648648636)"><svg viewBox="0 0 395.52 209.5187027027027" height="209.5187027027027" width="395.52"><g id="SvgjsG1235"><svg viewBox="0 0 395.52 209.5187027027027" height="209.5187027027027" width="395.52" id="SvgjsSvg1234"><g><svg viewBox="0 0 395.52 209.5187027027027" height="209.5187027027027" width="395.52"><g transform="matrix(1,0,0,1,0,0)"><svg width="395.52" viewBox="87.62 -34.05 175.75 81.1" height="209.5187027027027" data-palette-color="url(#7e8ab882-a97b-4cd0-9d6c-84bc49662551)"><svg></svg><svg></svg><g class="wordmark-text-0" data-fill-palette-color="primary" id="SvgjsG1233"><path d="M92.87 0h-5.25l6.25-34.05h4.45l9.35 24.85h0.15l9.35-24.85h4.45l6.25 34.05h-5.25l-2.75-16.2c-0.4-2.333-0.733-4.643-1-6.93-0.267-2.28-0.433-4.57-0.5-6.87v0h1.25c-0.6 2.767-1.223 5.2-1.87 7.3-0.653 2.1-1.397 4.267-2.23 6.5v0l-5.85 15.65h-3.85l-5.85-15.65c-0.833-2.267-1.573-4.443-2.22-6.53-0.653-2.08-1.28-4.503-1.88-7.27v0h1.25c-0.067 2.3-0.233 4.59-0.5 6.87-0.267 2.287-0.6 4.597-1 6.93v0zM140.47 0.7v0c-1.9 0-3.533-0.333-4.9-1-1.367-0.667-2.407-1.627-3.12-2.88-0.72-1.247-1.08-2.737-1.08-4.47v0c0-1.6 0.367-3.027 1.1-4.28 0.733-1.247 1.783-2.237 3.15-2.97 1.367-0.733 2.983-1.1 4.85-1.1v0c2.333 0 4.21 0.523 5.63 1.57 1.413 1.053 2.403 2.497 2.97 4.33v0h-2.8v-6.25c0-1.033-0.35-1.983-1.05-2.85-0.7-0.867-1.933-1.3-3.7-1.3v0c-0.933 0-1.957 0.107-3.07 0.32-1.12 0.22-2.28 0.597-3.48 1.13v0l-1.5-3.85c1.367-0.667 2.783-1.167 4.25-1.5 1.467-0.333 2.9-0.5 4.3-0.5v0c2.1 0 3.833 0.383 5.2 1.15 1.367 0.767 2.383 1.79 3.05 3.07 0.667 1.287 1 2.73 1 4.33v0 16.35h-3.6l-1.25-4.45 2.65-0.75c-0.6 1.967-1.667 3.44-3.2 4.42-1.533 0.987-3.333 1.48-5.4 1.48zM141.37-3.75v0c1.467 0 2.65-0.343 3.55-1.03 0.9-0.68 1.35-1.637 1.35-2.87v0c0-1.267-0.45-2.233-1.35-2.9-0.9-0.667-2.083-1-3.55-1v0c-1.467 0-2.65 0.333-3.55 1-0.9 0.667-1.35 1.633-1.35 2.9v0c0 1.233 0.45 2.19 1.35 2.87 0.9 0.687 2.083 1.03 3.55 1.03zM171.77 0l-10.6-12.3v-0.7l10.6-11.4h5.9l-11.9 13.05-0.45-3.3 12.45 14.65zM157.47 0v-34.05h4.9v34.05zM188.27 0.5v0c-1.7 0-3.377-0.4-5.03-1.2-1.647-0.8-3.003-2.167-4.07-4.1v0l3.8-2.5c0.933 1.233 1.817 2.123 2.65 2.67 0.833 0.553 1.917 0.83 3.25 0.83v0c1.067 0 1.893-0.277 2.48-0.83 0.58-0.547 0.87-1.22 0.87-2.02v0c0-0.533-0.14-1-0.42-1.4-0.287-0.4-0.78-0.777-1.48-1.13-0.7-0.347-1.7-0.687-3-1.02v0c-2.4-0.633-4.25-1.467-5.55-2.5-1.3-1.033-1.95-2.667-1.95-4.9v0c0-1.333 0.333-2.55 1-3.65 0.667-1.1 1.633-1.983 2.9-2.65 1.267-0.667 2.767-1 4.5-1v0c2.067 0 3.833 0.423 5.3 1.27 1.467 0.853 2.617 1.863 3.45 3.03v0l-3.85 2.85c-0.467-0.6-1.15-1.193-2.05-1.78-0.9-0.58-2.033-0.87-3.4-0.87v0c-0.833 0-1.6 0.233-2.3 0.7-0.7 0.467-1.05 1.117-1.05 1.95v0c0 0.833 0.327 1.507 0.98 2.02 0.647 0.52 1.837 0.98 3.57 1.38v0c2.933 0.7 5.017 1.607 6.25 2.72 1.233 1.12 1.85 2.597 1.85 4.43v0c0 1.6-0.407 2.973-1.22 4.12-0.82 1.153-1.887 2.037-3.2 2.65-1.32 0.62-2.747 0.93-4.28 0.93zM213.42-5.55l-4.15 2.45-9.65-21.3h5.25zM208.12 9.5h-5.25l15.4-33.9h5.25zM232.17 0h-5v-24.4h3.8l1.05 4.3-1.25 0.15c0.9-1.067 1.85-1.967 2.85-2.7 1-0.733 2.067-1.293 3.2-1.68 1.133-0.38 2.317-0.57 3.55-0.57v0c1.733 0 3.1 0.29 4.1 0.87 1 0.587 1.733 1.37 2.2 2.35 0.467 0.987 0.767 2.097 0.9 3.33 0.133 1.233 0.2 2.5 0.2 3.8v0 14.55h-5v-15.6c0-1.733-0.39-2.9-1.17-3.5-0.787-0.6-1.713-0.9-2.78-0.9v0c-1.533 0-3 0.477-4.4 1.43-1.4 0.947-2.417 2.087-3.05 3.42v0-2.8h0.8zM263.37 0h-5v-15.6c0-1.733-0.39-2.9-1.17-3.5-0.787-0.6-1.713-0.9-2.78-0.9v0c-1.533 0-3 0.477-4.4 1.43-1.4 0.947-2.417 2.087-3.05 3.42v0l-0.6-4.8c0.9-1.067 1.85-1.967 2.85-2.7 1-0.733 2.067-1.293 3.2-1.68 1.133-0.38 2.317-0.57 3.55-0.57v0c1.733 0 3.1 0.29 4.1 0.87 1 0.587 1.733 1.37 2.2 2.35 0.467 0.987 0.767 2.097 0.9 3.33 0.133 1.233 0.2 2.5 0.2 3.8v0z" fill="white" fill-rule="nonzero" stroke="none" stroke-width="1" stroke-linecap="butt" stroke-linejoin="miter" stroke-miterlimit="10" stroke-dasharray="" stroke-dashoffset="0" font-family="none" font-weight="none" font-size="none" text-anchor="none" style="mix-blend-mode: normal" opacity="1"></path><path d="M93.9 46.55h-5.25l6.25-34.05h4.45l9.35 24.85h0.15l9.35-24.85h4.45l6.25 34.05h-5.25l-2.75-16.2c-0.4-2.333-0.733-4.643-1-6.93-0.267-2.28-0.433-4.57-0.5-6.87v0h1.25c-0.6 2.767-1.223 5.2-1.87 7.3-0.653 2.1-1.397 4.267-2.23 6.5v0l-5.85 15.65h-3.85l-5.85-15.65c-0.833-2.267-1.573-4.443-2.22-6.53-0.653-2.08-1.28-4.503-1.88-7.27v0h1.25c-0.067 2.3-0.233 4.59-0.5 6.87-0.267 2.287-0.6 4.597-1 6.93v0zM139 22.15v24.4h-5v-24.4zM133.25 14.65v0c0-0.967 0.29-1.757 0.87-2.37 0.587-0.62 1.38-0.93 2.38-0.93v0c0.967 0 1.75 0.31 2.35 0.93 0.6 0.613 0.9 1.403 0.9 2.37v0c0 0.933-0.3 1.707-0.9 2.32-0.6 0.62-1.383 0.93-2.35 0.93v0c-1 0-1.793-0.31-2.38-0.93-0.58-0.613-0.87-1.387-0.87-2.32zM154.5 47v0c-2.133 0-3.823-0.627-5.07-1.88-1.253-1.247-1.88-3.187-1.88-5.82v0-16.85-0.3l0.95-5.5h4.05v22.75c0 0.933 0.243 1.633 0.73 2.1 0.48 0.467 1.087 0.7 1.82 0.7v0c0.567 0 1.067-0.033 1.5-0.1 0.433-0.067 0.817-0.15 1.15-0.25v0 4.65c-0.433 0.133-0.907 0.25-1.42 0.35-0.52 0.1-1.13 0.15-1.83 0.15zM157.75 26.75h-13.95v-4.6h13.95zM171.15 47.05v0c-1.833 0-3.283-0.293-4.35-0.88-1.067-0.58-1.85-1.363-2.35-2.35-0.5-0.98-0.823-2.087-0.97-3.32-0.153-1.233-0.23-2.5-0.23-3.8v0-14.55h5v15.6c0 1.733 0.393 2.9 1.18 3.5 0.78 0.6 1.703 0.9 2.77 0.9v0c1.1 0 2.193-0.217 3.28-0.65 1.08-0.433 2.063-1.027 2.95-1.78 0.88-0.747 1.537-1.553 1.97-2.42v0 2.8h-0.8v-17.95h5v24.4h-3.8l-1.05-4.3 1.25-0.15c-0.867 1.033-1.833 1.923-2.9 2.67-1.067 0.753-2.183 1.32-3.35 1.7-1.167 0.387-2.367 0.58-3.6 0.58zM198.8 47.05v0c-1.7 0-3.377-0.4-5.03-1.2-1.647-0.8-3.003-2.167-4.07-4.1v0l3.8-2.5c0.933 1.233 1.817 2.123 2.65 2.67 0.833 0.553 1.917 0.83 3.25 0.83v0c1.067 0 1.893-0.277 2.48-0.83 0.58-0.547 0.87-1.22 0.87-2.02v0c0-0.533-0.14-1-0.42-1.4-0.287-0.4-0.78-0.777-1.48-1.13-0.7-0.347-1.7-0.687-3-1.02v0c-2.4-0.633-4.25-1.467-5.55-2.5-1.3-1.033-1.95-2.667-1.95-4.9v0c0-1.333 0.333-2.55 1-3.65 0.667-1.1 1.633-1.983 2.9-2.65 1.267-0.667 2.767-1 4.5-1v0c2.067 0 3.833 0.423 5.3 1.27 1.467 0.853 2.617 1.863 3.45 3.03v0l-3.85 2.85c-0.467-0.6-1.15-1.193-2.05-1.78-0.9-0.58-2.033-0.87-3.4-0.87v0c-0.833 0-1.6 0.233-2.3 0.7-0.7 0.467-1.05 1.117-1.05 1.95v0c0 0.833 0.327 1.507 0.98 2.02 0.647 0.52 1.837 0.98 3.57 1.38v0c2.933 0.7 5.017 1.607 6.25 2.72 1.233 1.12 1.85 2.597 1.85 4.43v0c0 1.6-0.407 2.973-1.22 4.12-0.82 1.153-1.887 2.037-3.2 2.65-1.32 0.62-2.747 0.93-4.28 0.93zM223.6 47.05v0c-2.467 0-4.64-0.523-6.52-1.57-1.887-1.053-3.347-2.53-4.38-4.43-1.033-1.9-1.55-4.117-1.55-6.65v0c0-2.567 0.517-4.8 1.55-6.7 1.033-1.9 2.493-3.383 4.38-4.45 1.88-1.067 4.053-1.6 6.52-1.6v0c2.5 0 4.683 0.533 6.55 1.6 1.867 1.067 3.327 2.55 4.38 4.45 1.047 1.9 1.57 4.133 1.57 6.7v0c0 2.533-0.523 4.75-1.57 6.65-1.053 1.9-2.513 3.377-4.38 4.43-1.867 1.047-4.05 1.57-6.55 1.57zM223.6 42.25v0c2.233 0 4.027-0.727 5.38-2.18 1.347-1.447 2.02-3.337 2.02-5.67v0c0-2.367-0.673-4.283-2.02-5.75-1.353-1.467-3.147-2.2-5.38-2.2v0c-2.2 0-3.973 0.723-5.32 2.17-1.353 1.453-2.03 3.363-2.03 5.73v0c0 2.367 0.677 4.273 2.03 5.72 1.347 1.453 3.12 2.18 5.32 2.18zM256.9 22.15h5.45l-9.2 24.4h-4.75l-9.7-24.4h5.55l6.8 18.95h-0.65z" fill="black" fill-rule="nonzero" stroke="none" stroke-width="1" stroke-linecap="butt" stroke-linejoin="miter" stroke-miterlimit="10" stroke-dasharray="" stroke-dashoffset="0" font-family="none" font-weight="none" font-size="none" text-anchor="none" style="mix-blend-mode: normal" opacity="1"></path></g></svg></g></svg></g></svg></g></svg></g><g transform="matrix(1,0,0,1,418.65732317551067,0)"><svg viewBox="0 0 244.43135999999998 244.43135999999998" height="244.43135999999998" width="244.43135999999998"><g data-palette-color="url(#8a84a348-2633-40ff-b904-2ed08e3a827d)"><rect width="66.8112384" height="244.43135999999998" fill="black" stroke="transparent" x="0" fill-opacity="1"></rect><rect width="66.8112384" height="244.43135999999998" fill="black" stroke="transparent" x="81.47711999999999" fill-opacity="0.75"></rect><rect width="66.8112384" height="244.43135999999998" fill="black" stroke="transparent" x="162.95423999999997" fill-opacity="0.5"></rect></g></svg></g></svg></g><defs><mask></mask></defs></svg><rect width="395.52" height="145.79873546358016" fill="black" stroke="none" visibility="hidden"></rect></g></mask><linearGradient x1="0" x2="1" y1="0.578" y2="0.595" id="7e8ab882-a97b-4cd0-9d6c-84bc49662551"><stop stop-color="#6ee2f5" offset="0"></stop><stop stop-color="#6454f0" offset="1"></stop></linearGradient><rect width="395.52" height="145.79873546358016" fill="url(#7e8ab882-a97b-4cd0-9d6c-84bc49662551)" mask="url(#15265e52-865b-4840-8d86-e40e1baca401)" data-fill-palette-color="primary"></rect><mask id="e34e872a-81a7-4eb0-a225-4902a69eab05"><g id="SvgjsG1244"><svg viewBox="0 0 395.52 145.79873546358016" height="145.79873546358016" width="395.52"><g><svg viewBox="0 0 663.0886831755106 244.43135999999998" height="145.79873546358016" width="395.52"><g transform="matrix(1,0,0,1,0,17.456328648648636)"><svg viewBox="0 0 395.52 209.5187027027027" height="209.5187027027027" width="395.52"><g id="SvgjsG1243"><svg viewBox="0 0 395.52 209.5187027027027" height="209.5187027027027" width="395.52" id="SvgjsSvg1242"><g><svg viewBox="0 0 395.52 209.5187027027027" height="209.5187027027027" width="395.52"><g transform="matrix(1,0,0,1,0,0)"><svg width="395.52" viewBox="87.62 -34.05 175.75 81.1" height="209.5187027027027" data-palette-color="url(#7e8ab882-a97b-4cd0-9d6c-84bc49662551)"><svg></svg><svg></svg><g class="wordmark-text-0" data-fill-palette-color="primary" id="SvgjsG1241"><path d="M93.9 46.55h-5.25l6.25-34.05h4.45l9.35 24.85h0.15l9.35-24.85h4.45l6.25 34.05h-5.25l-2.75-16.2c-0.4-2.333-0.733-4.643-1-6.93-0.267-2.28-0.433-4.57-0.5-6.87v0h1.25c-0.6 2.767-1.223 5.2-1.87 7.3-0.653 2.1-1.397 4.267-2.23 6.5v0l-5.85 15.65h-3.85l-5.85-15.65c-0.833-2.267-1.573-4.443-2.22-6.53-0.653-2.08-1.28-4.503-1.88-7.27v0h1.25c-0.067 2.3-0.233 4.59-0.5 6.87-0.267 2.287-0.6 4.597-1 6.93v0zM139 22.15v24.4h-5v-24.4zM133.25 14.65v0c0-0.967 0.29-1.757 0.87-2.37 0.587-0.62 1.38-0.93 2.38-0.93v0c0.967 0 1.75 0.31 2.35 0.93 0.6 0.613 0.9 1.403 0.9 2.37v0c0 0.933-0.3 1.707-0.9 2.32-0.6 0.62-1.383 0.93-2.35 0.93v0c-1 0-1.793-0.31-2.38-0.93-0.58-0.613-0.87-1.387-0.87-2.32zM154.5 47v0c-2.133 0-3.823-0.627-5.07-1.88-1.253-1.247-1.88-3.187-1.88-5.82v0-16.85-0.3l0.95-5.5h4.05v22.75c0 0.933 0.243 1.633 0.73 2.1 0.48 0.467 1.087 0.7 1.82 0.7v0c0.567 0 1.067-0.033 1.5-0.1 0.433-0.067 0.817-0.15 1.15-0.25v0 4.65c-0.433 0.133-0.907 0.25-1.42 0.35-0.52 0.1-1.13 0.15-1.83 0.15zM157.75 26.75h-13.95v-4.6h13.95zM171.15 47.05v0c-1.833 0-3.283-0.293-4.35-0.88-1.067-0.58-1.85-1.363-2.35-2.35-0.5-0.98-0.823-2.087-0.97-3.32-0.153-1.233-0.23-2.5-0.23-3.8v0-14.55h5v15.6c0 1.733 0.393 2.9 1.18 3.5 0.78 0.6 1.703 0.9 2.77 0.9v0c1.1 0 2.193-0.217 3.28-0.65 1.08-0.433 2.063-1.027 2.95-1.78 0.88-0.747 1.537-1.553 1.97-2.42v0 2.8h-0.8v-17.95h5v24.4h-3.8l-1.05-4.3 1.25-0.15c-0.867 1.033-1.833 1.923-2.9 2.67-1.067 0.753-2.183 1.32-3.35 1.7-1.167 0.387-2.367 0.58-3.6 0.58zM198.8 47.05v0c-1.7 0-3.377-0.4-5.03-1.2-1.647-0.8-3.003-2.167-4.07-4.1v0l3.8-2.5c0.933 1.233 1.817 2.123 2.65 2.67 0.833 0.553 1.917 0.83 3.25 0.83v0c1.067 0 1.893-0.277 2.48-0.83 0.58-0.547 0.87-1.22 0.87-2.02v0c0-0.533-0.14-1-0.42-1.4-0.287-0.4-0.78-0.777-1.48-1.13-0.7-0.347-1.7-0.687-3-1.02v0c-2.4-0.633-4.25-1.467-5.55-2.5-1.3-1.033-1.95-2.667-1.95-4.9v0c0-1.333 0.333-2.55 1-3.65 0.667-1.1 1.633-1.983 2.9-2.65 1.267-0.667 2.767-1 4.5-1v0c2.067 0 3.833 0.423 5.3 1.27 1.467 0.853 2.617 1.863 3.45 3.03v0l-3.85 2.85c-0.467-0.6-1.15-1.193-2.05-1.78-0.9-0.58-2.033-0.87-3.4-0.87v0c-0.833 0-1.6 0.233-2.3 0.7-0.7 0.467-1.05 1.117-1.05 1.95v0c0 0.833 0.327 1.507 0.98 2.02 0.647 0.52 1.837 0.98 3.57 1.38v0c2.933 0.7 5.017 1.607 6.25 2.72 1.233 1.12 1.85 2.597 1.85 4.43v0c0 1.6-0.407 2.973-1.22 4.12-0.82 1.153-1.887 2.037-3.2 2.65-1.32 0.62-2.747 0.93-4.28 0.93zM223.6 47.05v0c-2.467 0-4.64-0.523-6.52-1.57-1.887-1.053-3.347-2.53-4.38-4.43-1.033-1.9-1.55-4.117-1.55-6.65v0c0-2.567 0.517-4.8 1.55-6.7 1.033-1.9 2.493-3.383 4.38-4.45 1.88-1.067 4.053-1.6 6.52-1.6v0c2.5 0 4.683 0.533 6.55 1.6 1.867 1.067 3.327 2.55 4.38 4.45 1.047 1.9 1.57 4.133 1.57 6.7v0c0 2.533-0.523 4.75-1.57 6.65-1.053 1.9-2.513 3.377-4.38 4.43-1.867 1.047-4.05 1.57-6.55 1.57zM223.6 42.25v0c2.233 0 4.027-0.727 5.38-2.18 1.347-1.447 2.02-3.337 2.02-5.67v0c0-2.367-0.673-4.283-2.02-5.75-1.353-1.467-3.147-2.2-5.38-2.2v0c-2.2 0-3.973 0.723-5.32 2.17-1.353 1.453-2.03 3.363-2.03 5.73v0c0 2.367 0.677 4.273 2.03 5.72 1.347 1.453 3.12 2.18 5.32 2.18zM256.9 22.15h5.45l-9.2 24.4h-4.75l-9.7-24.4h5.55l6.8 18.95h-0.65z" fill="white" fill-rule="nonzero" stroke="none" stroke-width="1" stroke-linecap="butt" stroke-linejoin="miter" stroke-miterlimit="10" stroke-dasharray="" stroke-dashoffset="0" font-family="none" font-weight="none" font-size="none" text-anchor="none" style="mix-blend-mode: normal" opacity="1"></path></g></svg></g></svg></g></svg></g></svg></g><g transform="matrix(1,0,0,1,418.65732317551067,0)"><svg viewBox="0 0 244.43135999999998 244.43135999999998" height="244.43135999999998" width="244.43135999999998"><g data-palette-color="url(#8a84a348-2633-40ff-b904-2ed08e3a827d)"><rect width="66.8112384" height="244.43135999999998" fill="black" stroke="transparent" x="0" fill-opacity="1"></rect><rect width="66.8112384" height="244.43135999999998" fill="black" stroke="transparent" x="81.47711999999999" fill-opacity="0.75"></rect><rect width="66.8112384" height="244.43135999999998" fill="black" stroke="transparent" x="162.95423999999997" fill-opacity="0.5"></rect></g></svg></g></svg></g><defs><mask></mask></defs><mask><g id="SvgjsG1240"><svg viewBox="0 0 395.52 145.79873546358016" height="145.79873546358016" width="395.52"><g><svg viewBox="0 0 663.0886831755106 244.43135999999998" height="145.79873546358016" width="395.52"><g transform="matrix(1,0,0,1,0,17.456328648648636)"><svg viewBox="0 0 395.52 209.5187027027027" height="209.5187027027027" width="395.52"><g id="SvgjsG1239"><svg viewBox="0 0 395.52 209.5187027027027" height="209.5187027027027" width="395.52" id="SvgjsSvg1238"><g><svg viewBox="0 0 395.52 209.5187027027027" height="209.5187027027027" width="395.52"><g transform="matrix(1,0,0,1,0,0)"><svg width="395.52" viewBox="87.62 -34.05 175.75 81.1" height="209.5187027027027" data-palette-color="url(#7e8ab882-a97b-4cd0-9d6c-84bc49662551)"><svg></svg><svg></svg><g class="wordmark-text-0" data-fill-palette-color="primary" id="SvgjsG1237"><path d="M92.87 0h-5.25l6.25-34.05h4.45l9.35 24.85h0.15l9.35-24.85h4.45l6.25 34.05h-5.25l-2.75-16.2c-0.4-2.333-0.733-4.643-1-6.93-0.267-2.28-0.433-4.57-0.5-6.87v0h1.25c-0.6 2.767-1.223 5.2-1.87 7.3-0.653 2.1-1.397 4.267-2.23 6.5v0l-5.85 15.65h-3.85l-5.85-15.65c-0.833-2.267-1.573-4.443-2.22-6.53-0.653-2.08-1.28-4.503-1.88-7.27v0h1.25c-0.067 2.3-0.233 4.59-0.5 6.87-0.267 2.287-0.6 4.597-1 6.93v0zM140.47 0.7v0c-1.9 0-3.533-0.333-4.9-1-1.367-0.667-2.407-1.627-3.12-2.88-0.72-1.247-1.08-2.737-1.08-4.47v0c0-1.6 0.367-3.027 1.1-4.28 0.733-1.247 1.783-2.237 3.15-2.97 1.367-0.733 2.983-1.1 4.85-1.1v0c2.333 0 4.21 0.523 5.63 1.57 1.413 1.053 2.403 2.497 2.97 4.33v0h-2.8v-6.25c0-1.033-0.35-1.983-1.05-2.85-0.7-0.867-1.933-1.3-3.7-1.3v0c-0.933 0-1.957 0.107-3.07 0.32-1.12 0.22-2.28 0.597-3.48 1.13v0l-1.5-3.85c1.367-0.667 2.783-1.167 4.25-1.5 1.467-0.333 2.9-0.5 4.3-0.5v0c2.1 0 3.833 0.383 5.2 1.15 1.367 0.767 2.383 1.79 3.05 3.07 0.667 1.287 1 2.73 1 4.33v0 16.35h-3.6l-1.25-4.45 2.65-0.75c-0.6 1.967-1.667 3.44-3.2 4.42-1.533 0.987-3.333 1.48-5.4 1.48zM141.37-3.75v0c1.467 0 2.65-0.343 3.55-1.03 0.9-0.68 1.35-1.637 1.35-2.87v0c0-1.267-0.45-2.233-1.35-2.9-0.9-0.667-2.083-1-3.55-1v0c-1.467 0-2.65 0.333-3.55 1-0.9 0.667-1.35 1.633-1.35 2.9v0c0 1.233 0.45 2.19 1.35 2.87 0.9 0.687 2.083 1.03 3.55 1.03zM171.77 0l-10.6-12.3v-0.7l10.6-11.4h5.9l-11.9 13.05-0.45-3.3 12.45 14.65zM157.47 0v-34.05h4.9v34.05zM188.27 0.5v0c-1.7 0-3.377-0.4-5.03-1.2-1.647-0.8-3.003-2.167-4.07-4.1v0l3.8-2.5c0.933 1.233 1.817 2.123 2.65 2.67 0.833 0.553 1.917 0.83 3.25 0.83v0c1.067 0 1.893-0.277 2.48-0.83 0.58-0.547 0.87-1.22 0.87-2.02v0c0-0.533-0.14-1-0.42-1.4-0.287-0.4-0.78-0.777-1.48-1.13-0.7-0.347-1.7-0.687-3-1.02v0c-2.4-0.633-4.25-1.467-5.55-2.5-1.3-1.033-1.95-2.667-1.95-4.9v0c0-1.333 0.333-2.55 1-3.65 0.667-1.1 1.633-1.983 2.9-2.65 1.267-0.667 2.767-1 4.5-1v0c2.067 0 3.833 0.423 5.3 1.27 1.467 0.853 2.617 1.863 3.45 3.03v0l-3.85 2.85c-0.467-0.6-1.15-1.193-2.05-1.78-0.9-0.58-2.033-0.87-3.4-0.87v0c-0.833 0-1.6 0.233-2.3 0.7-0.7 0.467-1.05 1.117-1.05 1.95v0c0 0.833 0.327 1.507 0.98 2.02 0.647 0.52 1.837 0.98 3.57 1.38v0c2.933 0.7 5.017 1.607 6.25 2.72 1.233 1.12 1.85 2.597 1.85 4.43v0c0 1.6-0.407 2.973-1.22 4.12-0.82 1.153-1.887 2.037-3.2 2.65-1.32 0.62-2.747 0.93-4.28 0.93zM213.42-5.55l-4.15 2.45-9.65-21.3h5.25zM208.12 9.5h-5.25l15.4-33.9h5.25zM232.17 0h-5v-24.4h3.8l1.05 4.3-1.25 0.15c0.9-1.067 1.85-1.967 2.85-2.7 1-0.733 2.067-1.293 3.2-1.68 1.133-0.38 2.317-0.57 3.55-0.57v0c1.733 0 3.1 0.29 4.1 0.87 1 0.587 1.733 1.37 2.2 2.35 0.467 0.987 0.767 2.097 0.9 3.33 0.133 1.233 0.2 2.5 0.2 3.8v0 14.55h-5v-15.6c0-1.733-0.39-2.9-1.17-3.5-0.787-0.6-1.713-0.9-2.78-0.9v0c-1.533 0-3 0.477-4.4 1.43-1.4 0.947-2.417 2.087-3.05 3.42v0-2.8h0.8zM263.37 0h-5v-15.6c0-1.733-0.39-2.9-1.17-3.5-0.787-0.6-1.713-0.9-2.78-0.9v0c-1.533 0-3 0.477-4.4 1.43-1.4 0.947-2.417 2.087-3.05 3.42v0l-0.6-4.8c0.9-1.067 1.85-1.967 2.85-2.7 1-0.733 2.067-1.293 3.2-1.68 1.133-0.38 2.317-0.57 3.55-0.57v0c1.733 0 3.1 0.29 4.1 0.87 1 0.587 1.733 1.37 2.2 2.35 0.467 0.987 0.767 2.097 0.9 3.33 0.133 1.233 0.2 2.5 0.2 3.8v0z" fill="black" fill-rule="nonzero" stroke="none" stroke-width="1" stroke-linecap="butt" stroke-linejoin="miter" stroke-miterlimit="10" stroke-dasharray="" stroke-dashoffset="0" font-family="none" font-weight="none" font-size="none" text-anchor="none" style="mix-blend-mode: normal" opacity="1"></path><path d="M93.9 46.55h-5.25l6.25-34.05h4.45l9.35 24.85h0.15l9.35-24.85h4.45l6.25 34.05h-5.25l-2.75-16.2c-0.4-2.333-0.733-4.643-1-6.93-0.267-2.28-0.433-4.57-0.5-6.87v0h1.25c-0.6 2.767-1.223 5.2-1.87 7.3-0.653 2.1-1.397 4.267-2.23 6.5v0l-5.85 15.65h-3.85l-5.85-15.65c-0.833-2.267-1.573-4.443-2.22-6.53-0.653-2.08-1.28-4.503-1.88-7.27v0h1.25c-0.067 2.3-0.233 4.59-0.5 6.87-0.267 2.287-0.6 4.597-1 6.93v0zM139 22.15v24.4h-5v-24.4zM133.25 14.65v0c0-0.967 0.29-1.757 0.87-2.37 0.587-0.62 1.38-0.93 2.38-0.93v0c0.967 0 1.75 0.31 2.35 0.93 0.6 0.613 0.9 1.403 0.9 2.37v0c0 0.933-0.3 1.707-0.9 2.32-0.6 0.62-1.383 0.93-2.35 0.93v0c-1 0-1.793-0.31-2.38-0.93-0.58-0.613-0.87-1.387-0.87-2.32zM154.5 47v0c-2.133 0-3.823-0.627-5.07-1.88-1.253-1.247-1.88-3.187-1.88-5.82v0-16.85-0.3l0.95-5.5h4.05v22.75c0 0.933 0.243 1.633 0.73 2.1 0.48 0.467 1.087 0.7 1.82 0.7v0c0.567 0 1.067-0.033 1.5-0.1 0.433-0.067 0.817-0.15 1.15-0.25v0 4.65c-0.433 0.133-0.907 0.25-1.42 0.35-0.52 0.1-1.13 0.15-1.83 0.15zM157.75 26.75h-13.95v-4.6h13.95zM171.15 47.05v0c-1.833 0-3.283-0.293-4.35-0.88-1.067-0.58-1.85-1.363-2.35-2.35-0.5-0.98-0.823-2.087-0.97-3.32-0.153-1.233-0.23-2.5-0.23-3.8v0-14.55h5v15.6c0 1.733 0.393 2.9 1.18 3.5 0.78 0.6 1.703 0.9 2.77 0.9v0c1.1 0 2.193-0.217 3.28-0.65 1.08-0.433 2.063-1.027 2.95-1.78 0.88-0.747 1.537-1.553 1.97-2.42v0 2.8h-0.8v-17.95h5v24.4h-3.8l-1.05-4.3 1.25-0.15c-0.867 1.033-1.833 1.923-2.9 2.67-1.067 0.753-2.183 1.32-3.35 1.7-1.167 0.387-2.367 0.58-3.6 0.58zM198.8 47.05v0c-1.7 0-3.377-0.4-5.03-1.2-1.647-0.8-3.003-2.167-4.07-4.1v0l3.8-2.5c0.933 1.233 1.817 2.123 2.65 2.67 0.833 0.553 1.917 0.83 3.25 0.83v0c1.067 0 1.893-0.277 2.48-0.83 0.58-0.547 0.87-1.22 0.87-2.02v0c0-0.533-0.14-1-0.42-1.4-0.287-0.4-0.78-0.777-1.48-1.13-0.7-0.347-1.7-0.687-3-1.02v0c-2.4-0.633-4.25-1.467-5.55-2.5-1.3-1.033-1.95-2.667-1.95-4.9v0c0-1.333 0.333-2.55 1-3.65 0.667-1.1 1.633-1.983 2.9-2.65 1.267-0.667 2.767-1 4.5-1v0c2.067 0 3.833 0.423 5.3 1.27 1.467 0.853 2.617 1.863 3.45 3.03v0l-3.85 2.85c-0.467-0.6-1.15-1.193-2.05-1.78-0.9-0.58-2.033-0.87-3.4-0.87v0c-0.833 0-1.6 0.233-2.3 0.7-0.7 0.467-1.05 1.117-1.05 1.95v0c0 0.833 0.327 1.507 0.98 2.02 0.647 0.52 1.837 0.98 3.57 1.38v0c2.933 0.7 5.017 1.607 6.25 2.72 1.233 1.12 1.85 2.597 1.85 4.43v0c0 1.6-0.407 2.973-1.22 4.12-0.82 1.153-1.887 2.037-3.2 2.65-1.32 0.62-2.747 0.93-4.28 0.93zM223.6 47.05v0c-2.467 0-4.64-0.523-6.52-1.57-1.887-1.053-3.347-2.53-4.38-4.43-1.033-1.9-1.55-4.117-1.55-6.65v0c0-2.567 0.517-4.8 1.55-6.7 1.033-1.9 2.493-3.383 4.38-4.45 1.88-1.067 4.053-1.6 6.52-1.6v0c2.5 0 4.683 0.533 6.55 1.6 1.867 1.067 3.327 2.55 4.38 4.45 1.047 1.9 1.57 4.133 1.57 6.7v0c0 2.533-0.523 4.75-1.57 6.65-1.053 1.9-2.513 3.377-4.38 4.43-1.867 1.047-4.05 1.57-6.55 1.57zM223.6 42.25v0c2.233 0 4.027-0.727 5.38-2.18 1.347-1.447 2.02-3.337 2.02-5.67v0c0-2.367-0.673-4.283-2.02-5.75-1.353-1.467-3.147-2.2-5.38-2.2v0c-2.2 0-3.973 0.723-5.32 2.17-1.353 1.453-2.03 3.363-2.03 5.73v0c0 2.367 0.677 4.273 2.03 5.72 1.347 1.453 3.12 2.18 5.32 2.18zM256.9 22.15h5.45l-9.2 24.4h-4.75l-9.7-24.4h5.55l6.8 18.95h-0.65z" fill="black" fill-rule="nonzero" stroke="none" stroke-width="1" stroke-linecap="butt" stroke-linejoin="miter" stroke-miterlimit="10" stroke-dasharray="" stroke-dashoffset="0" font-family="none" font-weight="none" font-size="none" text-anchor="none" style="mix-blend-mode: normal" opacity="1"></path></g></svg></g></svg></g></svg></g></svg></g><g transform="matrix(1,0,0,1,418.65732317551067,0)"><svg viewBox="0 0 244.43135999999998 244.43135999999998" height="244.43135999999998" width="244.43135999999998"><g data-palette-color="url(#8a84a348-2633-40ff-b904-2ed08e3a827d)"><rect width="66.8112384" height="244.43135999999998" fill="black" stroke="transparent" x="0" fill-opacity="1"></rect><rect width="66.8112384" height="244.43135999999998" fill="black" stroke="transparent" x="81.47711999999999" fill-opacity="0.75"></rect><rect width="66.8112384" height="244.43135999999998" fill="black" stroke="transparent" x="162.95423999999997" fill-opacity="0.5"></rect></g></svg></g></svg></g><defs><mask></mask></defs></svg><rect width="395.52" height="145.79873546358016" fill="black" stroke="none" visibility="hidden"></rect></g></mask></svg><rect width="395.52" height="145.79873546358016" fill="black" stroke="none" visibility="hidden"></rect></g></mask><linearGradient x1="0" x2="1" y1="0.578" y2="0.595" id="3c6a6446-2422-4456-a9d4-07714a1c86a6"><stop stop-color="#6ee2f5" offset="0"></stop><stop stop-color="#6454f0" offset="1"></stop></linearGradient><rect width="395.52" height="145.79873546358016" fill="url(#3c6a6446-2422-4456-a9d4-07714a1c86a6)" mask="url(#e34e872a-81a7-4eb0-a225-4902a69eab05)" data-fill-palette-color="secondary"></rect><mask id="39aac30e-3fbe-40b2-bdf7-ce08dbf2bbf5"><g id="SvgjsG1260"><svg viewBox="0 0 395.52 145.79873546358016" height="145.79873546358016" width="395.52"><g><svg viewBox="0 0 663.0886831755106 244.43135999999998" height="145.79873546358016" width="395.52"><g transform="matrix(1,0,0,1,0,17.456328648648636)"><svg viewBox="0 0 395.52 209.5187027027027" height="209.5187027027027" width="395.52"><g id="SvgjsG1259"><svg viewBox="0 0 395.52 209.5187027027027" height="209.5187027027027" width="395.52" id="SvgjsSvg1258"><g><svg viewBox="0 0 395.52 209.5187027027027" height="209.5187027027027" width="395.52"><g transform="matrix(1,0,0,1,0,0)"><svg width="395.52" viewBox="87.62 -34.05 175.75 81.1" height="209.5187027027027" data-palette-color="url(#7e8ab882-a97b-4cd0-9d6c-84bc49662551)"><svg></svg><svg></svg><g class="wordmark-text-0" data-fill-palette-color="primary" id="SvgjsG1257"></g></svg></g></svg></g></svg></g></svg></g><g transform="matrix(1,0,0,1,418.65732317551067,0)"><svg viewBox="0 0 244.43135999999998 244.43135999999998" height="244.43135999999998" width="244.43135999999998"><g data-palette-color="url(#8a84a348-2633-40ff-b904-2ed08e3a827d)"><rect width="66.8112384" height="244.43135999999998" fill="white" stroke="transparent" x="0" fill-opacity="1"></rect><rect width="66.8112384" height="244.43135999999998" fill="white" stroke="transparent" x="81.47711999999999" fill-opacity="0.75"></rect><rect width="66.8112384" height="244.43135999999998" fill="white" stroke="transparent" x="162.95423999999997" fill-opacity="0.5"></rect></g></svg></g></svg></g><defs><mask></mask></defs><mask><g id="SvgjsG1256"><svg viewBox="0 0 395.52 145.79873546358016" height="145.79873546358016" width="395.52"><g><svg viewBox="0 0 663.0886831755106 244.43135999999998" height="145.79873546358016" width="395.52"><g transform="matrix(1,0,0,1,0,17.456328648648636)"><svg viewBox="0 0 395.52 209.5187027027027" height="209.5187027027027" width="395.52"><g id="SvgjsG1255"><svg viewBox="0 0 395.52 209.5187027027027" height="209.5187027027027" width="395.52" id="SvgjsSvg1254"><g><svg viewBox="0 0 395.52 209.5187027027027" height="209.5187027027027" width="395.52"><g transform="matrix(1,0,0,1,0,0)"><svg width="395.52" viewBox="87.62 -34.05 175.75 81.1" height="209.5187027027027" data-palette-color="url(#7e8ab882-a97b-4cd0-9d6c-84bc49662551)"><svg></svg><svg></svg><g class="wordmark-text-0" data-fill-palette-color="primary" id="SvgjsG1253"><path d="M92.87 0h-5.25l6.25-34.05h4.45l9.35 24.85h0.15l9.35-24.85h4.45l6.25 34.05h-5.25l-2.75-16.2c-0.4-2.333-0.733-4.643-1-6.93-0.267-2.28-0.433-4.57-0.5-6.87v0h1.25c-0.6 2.767-1.223 5.2-1.87 7.3-0.653 2.1-1.397 4.267-2.23 6.5v0l-5.85 15.65h-3.85l-5.85-15.65c-0.833-2.267-1.573-4.443-2.22-6.53-0.653-2.08-1.28-4.503-1.88-7.27v0h1.25c-0.067 2.3-0.233 4.59-0.5 6.87-0.267 2.287-0.6 4.597-1 6.93v0zM140.47 0.7v0c-1.9 0-3.533-0.333-4.9-1-1.367-0.667-2.407-1.627-3.12-2.88-0.72-1.247-1.08-2.737-1.08-4.47v0c0-1.6 0.367-3.027 1.1-4.28 0.733-1.247 1.783-2.237 3.15-2.97 1.367-0.733 2.983-1.1 4.85-1.1v0c2.333 0 4.21 0.523 5.63 1.57 1.413 1.053 2.403 2.497 2.97 4.33v0h-2.8v-6.25c0-1.033-0.35-1.983-1.05-2.85-0.7-0.867-1.933-1.3-3.7-1.3v0c-0.933 0-1.957 0.107-3.07 0.32-1.12 0.22-2.28 0.597-3.48 1.13v0l-1.5-3.85c1.367-0.667 2.783-1.167 4.25-1.5 1.467-0.333 2.9-0.5 4.3-0.5v0c2.1 0 3.833 0.383 5.2 1.15 1.367 0.767 2.383 1.79 3.05 3.07 0.667 1.287 1 2.73 1 4.33v0 16.35h-3.6l-1.25-4.45 2.65-0.75c-0.6 1.967-1.667 3.44-3.2 4.42-1.533 0.987-3.333 1.48-5.4 1.48zM141.37-3.75v0c1.467 0 2.65-0.343 3.55-1.03 0.9-0.68 1.35-1.637 1.35-2.87v0c0-1.267-0.45-2.233-1.35-2.9-0.9-0.667-2.083-1-3.55-1v0c-1.467 0-2.65 0.333-3.55 1-0.9 0.667-1.35 1.633-1.35 2.9v0c0 1.233 0.45 2.19 1.35 2.87 0.9 0.687 2.083 1.03 3.55 1.03zM171.77 0l-10.6-12.3v-0.7l10.6-11.4h5.9l-11.9 13.05-0.45-3.3 12.45 14.65zM157.47 0v-34.05h4.9v34.05zM188.27 0.5v0c-1.7 0-3.377-0.4-5.03-1.2-1.647-0.8-3.003-2.167-4.07-4.1v0l3.8-2.5c0.933 1.233 1.817 2.123 2.65 2.67 0.833 0.553 1.917 0.83 3.25 0.83v0c1.067 0 1.893-0.277 2.48-0.83 0.58-0.547 0.87-1.22 0.87-2.02v0c0-0.533-0.14-1-0.42-1.4-0.287-0.4-0.78-0.777-1.48-1.13-0.7-0.347-1.7-0.687-3-1.02v0c-2.4-0.633-4.25-1.467-5.55-2.5-1.3-1.033-1.95-2.667-1.95-4.9v0c0-1.333 0.333-2.55 1-3.65 0.667-1.1 1.633-1.983 2.9-2.65 1.267-0.667 2.767-1 4.5-1v0c2.067 0 3.833 0.423 5.3 1.27 1.467 0.853 2.617 1.863 3.45 3.03v0l-3.85 2.85c-0.467-0.6-1.15-1.193-2.05-1.78-0.9-0.58-2.033-0.87-3.4-0.87v0c-0.833 0-1.6 0.233-2.3 0.7-0.7 0.467-1.05 1.117-1.05 1.95v0c0 0.833 0.327 1.507 0.98 2.02 0.647 0.52 1.837 0.98 3.57 1.38v0c2.933 0.7 5.017 1.607 6.25 2.72 1.233 1.12 1.85 2.597 1.85 4.43v0c0 1.6-0.407 2.973-1.22 4.12-0.82 1.153-1.887 2.037-3.2 2.65-1.32 0.62-2.747 0.93-4.28 0.93zM213.42-5.55l-4.15 2.45-9.65-21.3h5.25zM208.12 9.5h-5.25l15.4-33.9h5.25zM232.17 0h-5v-24.4h3.8l1.05 4.3-1.25 0.15c0.9-1.067 1.85-1.967 2.85-2.7 1-0.733 2.067-1.293 3.2-1.68 1.133-0.38 2.317-0.57 3.55-0.57v0c1.733 0 3.1 0.29 4.1 0.87 1 0.587 1.733 1.37 2.2 2.35 0.467 0.987 0.767 2.097 0.9 3.33 0.133 1.233 0.2 2.5 0.2 3.8v0 14.55h-5v-15.6c0-1.733-0.39-2.9-1.17-3.5-0.787-0.6-1.713-0.9-2.78-0.9v0c-1.533 0-3 0.477-4.4 1.43-1.4 0.947-2.417 2.087-3.05 3.42v0-2.8h0.8zM263.37 0h-5v-15.6c0-1.733-0.39-2.9-1.17-3.5-0.787-0.6-1.713-0.9-2.78-0.9v0c-1.533 0-3 0.477-4.4 1.43-1.4 0.947-2.417 2.087-3.05 3.42v0l-0.6-4.8c0.9-1.067 1.85-1.967 2.85-2.7 1-0.733 2.067-1.293 3.2-1.68 1.133-0.38 2.317-0.57 3.55-0.57v0c1.733 0 3.1 0.29 4.1 0.87 1 0.587 1.733 1.37 2.2 2.35 0.467 0.987 0.767 2.097 0.9 3.33 0.133 1.233 0.2 2.5 0.2 3.8v0z" fill="black" fill-rule="nonzero" stroke="none" stroke-width="1" stroke-linecap="butt" stroke-linejoin="miter" stroke-miterlimit="10" stroke-dasharray="" stroke-dashoffset="0" font-family="none" font-weight="none" font-size="none" text-anchor="none" style="mix-blend-mode: normal" opacity="1"></path><path d="M93.9 46.55h-5.25l6.25-34.05h4.45l9.35 24.85h0.15l9.35-24.85h4.45l6.25 34.05h-5.25l-2.75-16.2c-0.4-2.333-0.733-4.643-1-6.93-0.267-2.28-0.433-4.57-0.5-6.87v0h1.25c-0.6 2.767-1.223 5.2-1.87 7.3-0.653 2.1-1.397 4.267-2.23 6.5v0l-5.85 15.65h-3.85l-5.85-15.65c-0.833-2.267-1.573-4.443-2.22-6.53-0.653-2.08-1.28-4.503-1.88-7.27v0h1.25c-0.067 2.3-0.233 4.59-0.5 6.87-0.267 2.287-0.6 4.597-1 6.93v0zM139 22.15v24.4h-5v-24.4zM133.25 14.65v0c0-0.967 0.29-1.757 0.87-2.37 0.587-0.62 1.38-0.93 2.38-0.93v0c0.967 0 1.75 0.31 2.35 0.93 0.6 0.613 0.9 1.403 0.9 2.37v0c0 0.933-0.3 1.707-0.9 2.32-0.6 0.62-1.383 0.93-2.35 0.93v0c-1 0-1.793-0.31-2.38-0.93-0.58-0.613-0.87-1.387-0.87-2.32zM154.5 47v0c-2.133 0-3.823-0.627-5.07-1.88-1.253-1.247-1.88-3.187-1.88-5.82v0-16.85-0.3l0.95-5.5h4.05v22.75c0 0.933 0.243 1.633 0.73 2.1 0.48 0.467 1.087 0.7 1.82 0.7v0c0.567 0 1.067-0.033 1.5-0.1 0.433-0.067 0.817-0.15 1.15-0.25v0 4.65c-0.433 0.133-0.907 0.25-1.42 0.35-0.52 0.1-1.13 0.15-1.83 0.15zM157.75 26.75h-13.95v-4.6h13.95zM171.15 47.05v0c-1.833 0-3.283-0.293-4.35-0.88-1.067-0.58-1.85-1.363-2.35-2.35-0.5-0.98-0.823-2.087-0.97-3.32-0.153-1.233-0.23-2.5-0.23-3.8v0-14.55h5v15.6c0 1.733 0.393 2.9 1.18 3.5 0.78 0.6 1.703 0.9 2.77 0.9v0c1.1 0 2.193-0.217 3.28-0.65 1.08-0.433 2.063-1.027 2.95-1.78 0.88-0.747 1.537-1.553 1.97-2.42v0 2.8h-0.8v-17.95h5v24.4h-3.8l-1.05-4.3 1.25-0.15c-0.867 1.033-1.833 1.923-2.9 2.67-1.067 0.753-2.183 1.32-3.35 1.7-1.167 0.387-2.367 0.58-3.6 0.58zM198.8 47.05v0c-1.7 0-3.377-0.4-5.03-1.2-1.647-0.8-3.003-2.167-4.07-4.1v0l3.8-2.5c0.933 1.233 1.817 2.123 2.65 2.67 0.833 0.553 1.917 0.83 3.25 0.83v0c1.067 0 1.893-0.277 2.48-0.83 0.58-0.547 0.87-1.22 0.87-2.02v0c0-0.533-0.14-1-0.42-1.4-0.287-0.4-0.78-0.777-1.48-1.13-0.7-0.347-1.7-0.687-3-1.02v0c-2.4-0.633-4.25-1.467-5.55-2.5-1.3-1.033-1.95-2.667-1.95-4.9v0c0-1.333 0.333-2.55 1-3.65 0.667-1.1 1.633-1.983 2.9-2.65 1.267-0.667 2.767-1 4.5-1v0c2.067 0 3.833 0.423 5.3 1.27 1.467 0.853 2.617 1.863 3.45 3.03v0l-3.85 2.85c-0.467-0.6-1.15-1.193-2.05-1.78-0.9-0.58-2.033-0.87-3.4-0.87v0c-0.833 0-1.6 0.233-2.3 0.7-0.7 0.467-1.05 1.117-1.05 1.95v0c0 0.833 0.327 1.507 0.98 2.02 0.647 0.52 1.837 0.98 3.57 1.38v0c2.933 0.7 5.017 1.607 6.25 2.72 1.233 1.12 1.85 2.597 1.85 4.43v0c0 1.6-0.407 2.973-1.22 4.12-0.82 1.153-1.887 2.037-3.2 2.65-1.32 0.62-2.747 0.93-4.28 0.93zM223.6 47.05v0c-2.467 0-4.64-0.523-6.52-1.57-1.887-1.053-3.347-2.53-4.38-4.43-1.033-1.9-1.55-4.117-1.55-6.65v0c0-2.567 0.517-4.8 1.55-6.7 1.033-1.9 2.493-3.383 4.38-4.45 1.88-1.067 4.053-1.6 6.52-1.6v0c2.5 0 4.683 0.533 6.55 1.6 1.867 1.067 3.327 2.55 4.38 4.45 1.047 1.9 1.57 4.133 1.57 6.7v0c0 2.533-0.523 4.75-1.57 6.65-1.053 1.9-2.513 3.377-4.38 4.43-1.867 1.047-4.05 1.57-6.55 1.57zM223.6 42.25v0c2.233 0 4.027-0.727 5.38-2.18 1.347-1.447 2.02-3.337 2.02-5.67v0c0-2.367-0.673-4.283-2.02-5.75-1.353-1.467-3.147-2.2-5.38-2.2v0c-2.2 0-3.973 0.723-5.32 2.17-1.353 1.453-2.03 3.363-2.03 5.73v0c0 2.367 0.677 4.273 2.03 5.72 1.347 1.453 3.12 2.18 5.32 2.18zM256.9 22.15h5.45l-9.2 24.4h-4.75l-9.7-24.4h5.55l6.8 18.95h-0.65z" fill="black" fill-rule="nonzero" stroke="none" stroke-width="1" stroke-linecap="butt" stroke-linejoin="miter" stroke-miterlimit="10" stroke-dasharray="" stroke-dashoffset="0" font-family="none" font-weight="none" font-size="none" text-anchor="none" style="mix-blend-mode: normal" opacity="1"></path></g></svg></g></svg></g></svg></g></svg></g><g transform="matrix(1,0,0,1,418.65732317551067,0)"><svg viewBox="0 0 244.43135999999998 244.43135999999998" height="244.43135999999998" width="244.43135999999998"><g data-palette-color="url(#8a84a348-2633-40ff-b904-2ed08e3a827d)"><rect width="66.8112384" height="244.43135999999998" fill="black" stroke="transparent" x="0" fill-opacity="1"></rect><rect width="66.8112384" height="244.43135999999998" fill="black" stroke="transparent" x="81.47711999999999" fill-opacity="0.75"></rect><rect width="66.8112384" height="244.43135999999998" fill="black" stroke="transparent" x="162.95423999999997" fill-opacity="0.5"></rect></g></svg></g></svg></g><defs><mask></mask></defs></svg><rect width="395.52" height="145.79873546358016" fill="black" stroke="none" visibility="hidden"></rect></g></mask><mask><g id="SvgjsG1252"><svg viewBox="0 0 395.52 145.79873546358016" height="145.79873546358016" width="395.52"><g><svg viewBox="0 0 663.0886831755106 244.43135999999998" height="145.79873546358016" width="395.52"><g transform="matrix(1,0,0,1,0,17.456328648648636)"><svg viewBox="0 0 395.52 209.5187027027027" height="209.5187027027027" width="395.52"><g id="SvgjsG1251"><svg viewBox="0 0 395.52 209.5187027027027" height="209.5187027027027" width="395.52" id="SvgjsSvg1250"><g><svg viewBox="0 0 395.52 209.5187027027027" height="209.5187027027027" width="395.52"><g transform="matrix(1,0,0,1,0,0)"><svg width="395.52" viewBox="87.62 -34.05 175.75 81.1" height="209.5187027027027" data-palette-color="url(#7e8ab882-a97b-4cd0-9d6c-84bc49662551)"><svg></svg><svg></svg><g class="wordmark-text-0" data-fill-palette-color="primary" id="SvgjsG1249"><path d="M93.9 46.55h-5.25l6.25-34.05h4.45l9.35 24.85h0.15l9.35-24.85h4.45l6.25 34.05h-5.25l-2.75-16.2c-0.4-2.333-0.733-4.643-1-6.93-0.267-2.28-0.433-4.57-0.5-6.87v0h1.25c-0.6 2.767-1.223 5.2-1.87 7.3-0.653 2.1-1.397 4.267-2.23 6.5v0l-5.85 15.65h-3.85l-5.85-15.65c-0.833-2.267-1.573-4.443-2.22-6.53-0.653-2.08-1.28-4.503-1.88-7.27v0h1.25c-0.067 2.3-0.233 4.59-0.5 6.87-0.267 2.287-0.6 4.597-1 6.93v0zM139 22.15v24.4h-5v-24.4zM133.25 14.65v0c0-0.967 0.29-1.757 0.87-2.37 0.587-0.62 1.38-0.93 2.38-0.93v0c0.967 0 1.75 0.31 2.35 0.93 0.6 0.613 0.9 1.403 0.9 2.37v0c0 0.933-0.3 1.707-0.9 2.32-0.6 0.62-1.383 0.93-2.35 0.93v0c-1 0-1.793-0.31-2.38-0.93-0.58-0.613-0.87-1.387-0.87-2.32zM154.5 47v0c-2.133 0-3.823-0.627-5.07-1.88-1.253-1.247-1.88-3.187-1.88-5.82v0-16.85-0.3l0.95-5.5h4.05v22.75c0 0.933 0.243 1.633 0.73 2.1 0.48 0.467 1.087 0.7 1.82 0.7v0c0.567 0 1.067-0.033 1.5-0.1 0.433-0.067 0.817-0.15 1.15-0.25v0 4.65c-0.433 0.133-0.907 0.25-1.42 0.35-0.52 0.1-1.13 0.15-1.83 0.15zM157.75 26.75h-13.95v-4.6h13.95zM171.15 47.05v0c-1.833 0-3.283-0.293-4.35-0.88-1.067-0.58-1.85-1.363-2.35-2.35-0.5-0.98-0.823-2.087-0.97-3.32-0.153-1.233-0.23-2.5-0.23-3.8v0-14.55h5v15.6c0 1.733 0.393 2.9 1.18 3.5 0.78 0.6 1.703 0.9 2.77 0.9v0c1.1 0 2.193-0.217 3.28-0.65 1.08-0.433 2.063-1.027 2.95-1.78 0.88-0.747 1.537-1.553 1.97-2.42v0 2.8h-0.8v-17.95h5v24.4h-3.8l-1.05-4.3 1.25-0.15c-0.867 1.033-1.833 1.923-2.9 2.67-1.067 0.753-2.183 1.32-3.35 1.7-1.167 0.387-2.367 0.58-3.6 0.58zM198.8 47.05v0c-1.7 0-3.377-0.4-5.03-1.2-1.647-0.8-3.003-2.167-4.07-4.1v0l3.8-2.5c0.933 1.233 1.817 2.123 2.65 2.67 0.833 0.553 1.917 0.83 3.25 0.83v0c1.067 0 1.893-0.277 2.48-0.83 0.58-0.547 0.87-1.22 0.87-2.02v0c0-0.533-0.14-1-0.42-1.4-0.287-0.4-0.78-0.777-1.48-1.13-0.7-0.347-1.7-0.687-3-1.02v0c-2.4-0.633-4.25-1.467-5.55-2.5-1.3-1.033-1.95-2.667-1.95-4.9v0c0-1.333 0.333-2.55 1-3.65 0.667-1.1 1.633-1.983 2.9-2.65 1.267-0.667 2.767-1 4.5-1v0c2.067 0 3.833 0.423 5.3 1.27 1.467 0.853 2.617 1.863 3.45 3.03v0l-3.85 2.85c-0.467-0.6-1.15-1.193-2.05-1.78-0.9-0.58-2.033-0.87-3.4-0.87v0c-0.833 0-1.6 0.233-2.3 0.7-0.7 0.467-1.05 1.117-1.05 1.95v0c0 0.833 0.327 1.507 0.98 2.02 0.647 0.52 1.837 0.98 3.57 1.38v0c2.933 0.7 5.017 1.607 6.25 2.72 1.233 1.12 1.85 2.597 1.85 4.43v0c0 1.6-0.407 2.973-1.22 4.12-0.82 1.153-1.887 2.037-3.2 2.65-1.32 0.62-2.747 0.93-4.28 0.93zM223.6 47.05v0c-2.467 0-4.64-0.523-6.52-1.57-1.887-1.053-3.347-2.53-4.38-4.43-1.033-1.9-1.55-4.117-1.55-6.65v0c0-2.567 0.517-4.8 1.55-6.7 1.033-1.9 2.493-3.383 4.38-4.45 1.88-1.067 4.053-1.6 6.52-1.6v0c2.5 0 4.683 0.533 6.55 1.6 1.867 1.067 3.327 2.55 4.38 4.45 1.047 1.9 1.57 4.133 1.57 6.7v0c0 2.533-0.523 4.75-1.57 6.65-1.053 1.9-2.513 3.377-4.38 4.43-1.867 1.047-4.05 1.57-6.55 1.57zM223.6 42.25v0c2.233 0 4.027-0.727 5.38-2.18 1.347-1.447 2.02-3.337 2.02-5.67v0c0-2.367-0.673-4.283-2.02-5.75-1.353-1.467-3.147-2.2-5.38-2.2v0c-2.2 0-3.973 0.723-5.32 2.17-1.353 1.453-2.03 3.363-2.03 5.73v0c0 2.367 0.677 4.273 2.03 5.72 1.347 1.453 3.12 2.18 5.32 2.18zM256.9 22.15h5.45l-9.2 24.4h-4.75l-9.7-24.4h5.55l6.8 18.95h-0.65z" fill="black" fill-rule="nonzero" stroke="none" stroke-width="1" stroke-linecap="butt" stroke-linejoin="miter" stroke-miterlimit="10" stroke-dasharray="" stroke-dashoffset="0" font-family="none" font-weight="none" font-size="none" text-anchor="none" style="mix-blend-mode: normal" opacity="1"></path></g></svg></g></svg></g></svg></g></svg></g><g transform="matrix(1,0,0,1,418.65732317551067,0)"><svg viewBox="0 0 244.43135999999998 244.43135999999998" height="244.43135999999998" width="244.43135999999998"><g data-palette-color="url(#8a84a348-2633-40ff-b904-2ed08e3a827d)"><rect width="66.8112384" height="244.43135999999998" fill="black" stroke="transparent" x="0" fill-opacity="1"></rect><rect width="66.8112384" height="244.43135999999998" fill="black" stroke="transparent" x="81.47711999999999" fill-opacity="0.75"></rect><rect width="66.8112384" height="244.43135999999998" fill="black" stroke="transparent" x="162.95423999999997" fill-opacity="0.5"></rect></g></svg></g></svg></g><defs><mask></mask></defs><mask><g id="SvgjsG1248"><svg viewBox="0 0 395.52 145.79873546358016" height="145.79873546358016" width="395.52"><g><svg viewBox="0 0 663.0886831755106 244.43135999999998" height="145.79873546358016" width="395.52"><g transform="matrix(1,0,0,1,0,17.456328648648636)"><svg viewBox="0 0 395.52 209.5187027027027" height="209.5187027027027" width="395.52"><g id="SvgjsG1247"><svg viewBox="0 0 395.52 209.5187027027027" height="209.5187027027027" width="395.52" id="SvgjsSvg1246"><g><svg viewBox="0 0 395.52 209.5187027027027" height="209.5187027027027" width="395.52"><g transform="matrix(1,0,0,1,0,0)"><svg width="395.52" viewBox="87.62 -34.05 175.75 81.1" height="209.5187027027027" data-palette-color="url(#7e8ab882-a97b-4cd0-9d6c-84bc49662551)"><svg></svg><svg></svg><g class="wordmark-text-0" data-fill-palette-color="primary" id="SvgjsG1245"><path d="M92.87 0h-5.25l6.25-34.05h4.45l9.35 24.85h0.15l9.35-24.85h4.45l6.25 34.05h-5.25l-2.75-16.2c-0.4-2.333-0.733-4.643-1-6.93-0.267-2.28-0.433-4.57-0.5-6.87v0h1.25c-0.6 2.767-1.223 5.2-1.87 7.3-0.653 2.1-1.397 4.267-2.23 6.5v0l-5.85 15.65h-3.85l-5.85-15.65c-0.833-2.267-1.573-4.443-2.22-6.53-0.653-2.08-1.28-4.503-1.88-7.27v0h1.25c-0.067 2.3-0.233 4.59-0.5 6.87-0.267 2.287-0.6 4.597-1 6.93v0zM140.47 0.7v0c-1.9 0-3.533-0.333-4.9-1-1.367-0.667-2.407-1.627-3.12-2.88-0.72-1.247-1.08-2.737-1.08-4.47v0c0-1.6 0.367-3.027 1.1-4.28 0.733-1.247 1.783-2.237 3.15-2.97 1.367-0.733 2.983-1.1 4.85-1.1v0c2.333 0 4.21 0.523 5.63 1.57 1.413 1.053 2.403 2.497 2.97 4.33v0h-2.8v-6.25c0-1.033-0.35-1.983-1.05-2.85-0.7-0.867-1.933-1.3-3.7-1.3v0c-0.933 0-1.957 0.107-3.07 0.32-1.12 0.22-2.28 0.597-3.48 1.13v0l-1.5-3.85c1.367-0.667 2.783-1.167 4.25-1.5 1.467-0.333 2.9-0.5 4.3-0.5v0c2.1 0 3.833 0.383 5.2 1.15 1.367 0.767 2.383 1.79 3.05 3.07 0.667 1.287 1 2.73 1 4.33v0 16.35h-3.6l-1.25-4.45 2.65-0.75c-0.6 1.967-1.667 3.44-3.2 4.42-1.533 0.987-3.333 1.48-5.4 1.48zM141.37-3.75v0c1.467 0 2.65-0.343 3.55-1.03 0.9-0.68 1.35-1.637 1.35-2.87v0c0-1.267-0.45-2.233-1.35-2.9-0.9-0.667-2.083-1-3.55-1v0c-1.467 0-2.65 0.333-3.55 1-0.9 0.667-1.35 1.633-1.35 2.9v0c0 1.233 0.45 2.19 1.35 2.87 0.9 0.687 2.083 1.03 3.55 1.03zM171.77 0l-10.6-12.3v-0.7l10.6-11.4h5.9l-11.9 13.05-0.45-3.3 12.45 14.65zM157.47 0v-34.05h4.9v34.05zM188.27 0.5v0c-1.7 0-3.377-0.4-5.03-1.2-1.647-0.8-3.003-2.167-4.07-4.1v0l3.8-2.5c0.933 1.233 1.817 2.123 2.65 2.67 0.833 0.553 1.917 0.83 3.25 0.83v0c1.067 0 1.893-0.277 2.48-0.83 0.58-0.547 0.87-1.22 0.87-2.02v0c0-0.533-0.14-1-0.42-1.4-0.287-0.4-0.78-0.777-1.48-1.13-0.7-0.347-1.7-0.687-3-1.02v0c-2.4-0.633-4.25-1.467-5.55-2.5-1.3-1.033-1.95-2.667-1.95-4.9v0c0-1.333 0.333-2.55 1-3.65 0.667-1.1 1.633-1.983 2.9-2.65 1.267-0.667 2.767-1 4.5-1v0c2.067 0 3.833 0.423 5.3 1.27 1.467 0.853 2.617 1.863 3.45 3.03v0l-3.85 2.85c-0.467-0.6-1.15-1.193-2.05-1.78-0.9-0.58-2.033-0.87-3.4-0.87v0c-0.833 0-1.6 0.233-2.3 0.7-0.7 0.467-1.05 1.117-1.05 1.95v0c0 0.833 0.327 1.507 0.98 2.02 0.647 0.52 1.837 0.98 3.57 1.38v0c2.933 0.7 5.017 1.607 6.25 2.72 1.233 1.12 1.85 2.597 1.85 4.43v0c0 1.6-0.407 2.973-1.22 4.12-0.82 1.153-1.887 2.037-3.2 2.65-1.32 0.62-2.747 0.93-4.28 0.93zM213.42-5.55l-4.15 2.45-9.65-21.3h5.25zM208.12 9.5h-5.25l15.4-33.9h5.25zM232.17 0h-5v-24.4h3.8l1.05 4.3-1.25 0.15c0.9-1.067 1.85-1.967 2.85-2.7 1-0.733 2.067-1.293 3.2-1.68 1.133-0.38 2.317-0.57 3.55-0.57v0c1.733 0 3.1 0.29 4.1 0.87 1 0.587 1.733 1.37 2.2 2.35 0.467 0.987 0.767 2.097 0.9 3.33 0.133 1.233 0.2 2.5 0.2 3.8v0 14.55h-5v-15.6c0-1.733-0.39-2.9-1.17-3.5-0.787-0.6-1.713-0.9-2.78-0.9v0c-1.533 0-3 0.477-4.4 1.43-1.4 0.947-2.417 2.087-3.05 3.42v0-2.8h0.8zM263.37 0h-5v-15.6c0-1.733-0.39-2.9-1.17-3.5-0.787-0.6-1.713-0.9-2.78-0.9v0c-1.533 0-3 0.477-4.4 1.43-1.4 0.947-2.417 2.087-3.05 3.42v0l-0.6-4.8c0.9-1.067 1.85-1.967 2.85-2.7 1-0.733 2.067-1.293 3.2-1.68 1.133-0.38 2.317-0.57 3.55-0.57v0c1.733 0 3.1 0.29 4.1 0.87 1 0.587 1.733 1.37 2.2 2.35 0.467 0.987 0.767 2.097 0.9 3.33 0.133 1.233 0.2 2.5 0.2 3.8v0z" fill="black" fill-rule="nonzero" stroke="none" stroke-width="1" stroke-linecap="butt" stroke-linejoin="miter" stroke-miterlimit="10" stroke-dasharray="" stroke-dashoffset="0" font-family="none" font-weight="none" font-size="none" text-anchor="none" style="mix-blend-mode: normal" opacity="1"></path><path d="M93.9 46.55h-5.25l6.25-34.05h4.45l9.35 24.85h0.15l9.35-24.85h4.45l6.25 34.05h-5.25l-2.75-16.2c-0.4-2.333-0.733-4.643-1-6.93-0.267-2.28-0.433-4.57-0.5-6.87v0h1.25c-0.6 2.767-1.223 5.2-1.87 7.3-0.653 2.1-1.397 4.267-2.23 6.5v0l-5.85 15.65h-3.85l-5.85-15.65c-0.833-2.267-1.573-4.443-2.22-6.53-0.653-2.08-1.28-4.503-1.88-7.27v0h1.25c-0.067 2.3-0.233 4.59-0.5 6.87-0.267 2.287-0.6 4.597-1 6.93v0zM139 22.15v24.4h-5v-24.4zM133.25 14.65v0c0-0.967 0.29-1.757 0.87-2.37 0.587-0.62 1.38-0.93 2.38-0.93v0c0.967 0 1.75 0.31 2.35 0.93 0.6 0.613 0.9 1.403 0.9 2.37v0c0 0.933-0.3 1.707-0.9 2.32-0.6 0.62-1.383 0.93-2.35 0.93v0c-1 0-1.793-0.31-2.38-0.93-0.58-0.613-0.87-1.387-0.87-2.32zM154.5 47v0c-2.133 0-3.823-0.627-5.07-1.88-1.253-1.247-1.88-3.187-1.88-5.82v0-16.85-0.3l0.95-5.5h4.05v22.75c0 0.933 0.243 1.633 0.73 2.1 0.48 0.467 1.087 0.7 1.82 0.7v0c0.567 0 1.067-0.033 1.5-0.1 0.433-0.067 0.817-0.15 1.15-0.25v0 4.65c-0.433 0.133-0.907 0.25-1.42 0.35-0.52 0.1-1.13 0.15-1.83 0.15zM157.75 26.75h-13.95v-4.6h13.95zM171.15 47.05v0c-1.833 0-3.283-0.293-4.35-0.88-1.067-0.58-1.85-1.363-2.35-2.35-0.5-0.98-0.823-2.087-0.97-3.32-0.153-1.233-0.23-2.5-0.23-3.8v0-14.55h5v15.6c0 1.733 0.393 2.9 1.18 3.5 0.78 0.6 1.703 0.9 2.77 0.9v0c1.1 0 2.193-0.217 3.28-0.65 1.08-0.433 2.063-1.027 2.95-1.78 0.88-0.747 1.537-1.553 1.97-2.42v0 2.8h-0.8v-17.95h5v24.4h-3.8l-1.05-4.3 1.25-0.15c-0.867 1.033-1.833 1.923-2.9 2.67-1.067 0.753-2.183 1.32-3.35 1.7-1.167 0.387-2.367 0.58-3.6 0.58zM198.8 47.05v0c-1.7 0-3.377-0.4-5.03-1.2-1.647-0.8-3.003-2.167-4.07-4.1v0l3.8-2.5c0.933 1.233 1.817 2.123 2.65 2.67 0.833 0.553 1.917 0.83 3.25 0.83v0c1.067 0 1.893-0.277 2.48-0.83 0.58-0.547 0.87-1.22 0.87-2.02v0c0-0.533-0.14-1-0.42-1.4-0.287-0.4-0.78-0.777-1.48-1.13-0.7-0.347-1.7-0.687-3-1.02v0c-2.4-0.633-4.25-1.467-5.55-2.5-1.3-1.033-1.95-2.667-1.95-4.9v0c0-1.333 0.333-2.55 1-3.65 0.667-1.1 1.633-1.983 2.9-2.65 1.267-0.667 2.767-1 4.5-1v0c2.067 0 3.833 0.423 5.3 1.27 1.467 0.853 2.617 1.863 3.45 3.03v0l-3.85 2.85c-0.467-0.6-1.15-1.193-2.05-1.78-0.9-0.58-2.033-0.87-3.4-0.87v0c-0.833 0-1.6 0.233-2.3 0.7-0.7 0.467-1.05 1.117-1.05 1.95v0c0 0.833 0.327 1.507 0.98 2.02 0.647 0.52 1.837 0.98 3.57 1.38v0c2.933 0.7 5.017 1.607 6.25 2.72 1.233 1.12 1.85 2.597 1.85 4.43v0c0 1.6-0.407 2.973-1.22 4.12-0.82 1.153-1.887 2.037-3.2 2.65-1.32 0.62-2.747 0.93-4.28 0.93zM223.6 47.05v0c-2.467 0-4.64-0.523-6.52-1.57-1.887-1.053-3.347-2.53-4.38-4.43-1.033-1.9-1.55-4.117-1.55-6.65v0c0-2.567 0.517-4.8 1.55-6.7 1.033-1.9 2.493-3.383 4.38-4.45 1.88-1.067 4.053-1.6 6.52-1.6v0c2.5 0 4.683 0.533 6.55 1.6 1.867 1.067 3.327 2.55 4.38 4.45 1.047 1.9 1.57 4.133 1.57 6.7v0c0 2.533-0.523 4.75-1.57 6.65-1.053 1.9-2.513 3.377-4.38 4.43-1.867 1.047-4.05 1.57-6.55 1.57zM223.6 42.25v0c2.233 0 4.027-0.727 5.38-2.18 1.347-1.447 2.02-3.337 2.02-5.67v0c0-2.367-0.673-4.283-2.02-5.75-1.353-1.467-3.147-2.2-5.38-2.2v0c-2.2 0-3.973 0.723-5.32 2.17-1.353 1.453-2.03 3.363-2.03 5.73v0c0 2.367 0.677 4.273 2.03 5.72 1.347 1.453 3.12 2.18 5.32 2.18zM256.9 22.15h5.45l-9.2 24.4h-4.75l-9.7-24.4h5.55l6.8 18.95h-0.65z" fill="black" fill-rule="nonzero" stroke="none" stroke-width="1" stroke-linecap="butt" stroke-linejoin="miter" stroke-miterlimit="10" stroke-dasharray="" stroke-dashoffset="0" font-family="none" font-weight="none" font-size="none" text-anchor="none" style="mix-blend-mode: normal" opacity="1"></path></g></svg></g></svg></g></svg></g></svg></g><g transform="matrix(1,0,0,1,418.65732317551067,0)"><svg viewBox="0 0 244.43135999999998 244.43135999999998" height="244.43135999999998" width="244.43135999999998"><g data-palette-color="url(#8a84a348-2633-40ff-b904-2ed08e3a827d)"><rect width="66.8112384" height="244.43135999999998" fill="black" stroke="transparent" x="0" fill-opacity="1"></rect><rect width="66.8112384" height="244.43135999999998" fill="black" stroke="transparent" x="81.47711999999999" fill-opacity="0.75"></rect><rect width="66.8112384" height="244.43135999999998" fill="black" stroke="transparent" x="162.95423999999997" fill-opacity="0.5"></rect></g></svg></g></svg></g><defs><mask></mask></defs></svg><rect width="395.52" height="145.79873546358016" fill="black" stroke="none" visibility="hidden"></rect></g></mask></svg><rect width="395.52" height="145.79873546358016" fill="black" stroke="none" visibility="hidden"></rect></g></mask></svg><rect width="395.52" height="145.79873546358016" fill="black" stroke="none" visibility="hidden"></rect></g></mask><linearGradient x1="0" x2="1" y1="0.578" y2="0.595" id="8a84a348-2633-40ff-b904-2ed08e3a827d"><stop stop-color="#6ee2f5" offset="0"></stop><stop stop-color="#6454f0" offset="1"></stop></linearGradient><rect width="395.52" height="145.79873546358016" fill="url(#8a84a348-2633-40ff-b904-2ed08e3a827d)" mask="url(#39aac30e-3fbe-40b2-bdf7-ce08dbf2bbf5)" data-fill-palette-color="accent"></rect></svg><rect width="395.52" height="145.79873546358016" fill="none" stroke="none" visibility="hidden"></rect></g></svg></g></svg>